<?xml version="1.0" standalone="no"?><!DOCTYPE svg PUBLIC "-//W3C//DTD SVG 1.1//EN" "http://www.w3.org/Graphics/SVG/1.1/DTD/svg11.dtd"><svg t="1531969580594" class="icon" style="" viewBox="0 0 1347 1024" version="1.1" xmlns="http://www.w3.org/2000/svg" p-id="31611" xmlns:xlink="http://www.w3.org/1999/xlink" width="55.248046875" height="42"><defs><style type="text/css"></style></defs><path d="M609.010526 26.947368a237.136842 237.136842 0 0 1 237.136842 237.136843 317.978947 317.978947 0 0 1-37.726315 140.126315c-43.115789 86.231579-107.789474 150.905263-296.421053 328.757895l-75.452632 64.673684-16.168421-16.168421-59.28421-48.505263C172.463158 555.115789 107.789474 490.442105 64.673684 404.210526a258.694737 258.694737 0 0 1-37.726316-140.126315A237.136842 237.136842 0 0 1 264.084211 26.947368a258.694737 258.694737 0 0 1 172.463157 70.063158A247.915789 247.915789 0 0 1 609.010526 26.947368z" fill="#d81e06" p-id="31612"></path><path d="M474.273684 689.852632c183.242105-167.073684 242.526316-231.747368 285.642105-307.2a247.915789 247.915789 0 0 0 32.336843-118.568421 183.242105 183.242105 0 0 0-183.242106-183.242106 199.410526 199.410526 0 0 0-150.905263 70.063158l-21.557895 26.947369-21.557894-26.947369a199.410526 199.410526 0 0 0-150.905263-70.063158 183.242105 183.242105 0 0 0-183.242106 183.242106 247.915789 247.915789 0 0 0 32.336842 118.568421c37.726316 75.452632 97.010526 140.126316 285.642106 307.2l37.726315 37.726315z" fill="#d81e06" p-id="31613"></path><path d="M1067.115789 156.294737a253.305263 253.305263 0 0 1 253.305264 253.305263 296.421053 296.421053 0 0 1-37.726316 150.905263c-48.505263 91.621053-113.178947 161.684211-323.368421 350.31579l-75.452632 70.063158-16.168421-16.168422-59.28421-53.894736c-210.189474-188.631579-274.863158-258.694737-323.368421-350.31579a296.421053 296.421053 0 0 1-37.726316-150.905263A253.305263 253.305263 0 0 1 700.631579 156.294737a264.084211 264.084211 0 0 1 183.242105 75.452631 264.084211 264.084211 0 0 1 183.242105-75.452631z" fill="#d81e06" p-id="31614"></path><path d="M926.989474 867.705263c199.410526-183.242105 264.084211-247.915789 307.2-334.147368a247.915789 247.915789 0 0 0 32.336842-123.957895 194.021053 194.021053 0 0 0-199.410527-199.410526 210.189474 210.189474 0 0 0-161.68421 75.452631l-21.557895 26.947369-21.557895-26.947369a210.189474 210.189474 0 0 0-161.68421-75.452631 194.021053 194.021053 0 0 0-199.410526 199.410526 247.915789 247.915789 0 0 0 32.336842 123.957895c43.115789 86.231579 107.789474 150.905263 307.2 334.147368l43.115789 37.726316z" fill="#d81e06" p-id="31615"></path></svg>