<?xml version="1.0" standalone="no"?><!DOCTYPE svg PUBLIC "-//W3C//DTD SVG 1.1//EN" "http://www.w3.org/Graphics/SVG/1.1/DTD/svg11.dtd"><svg t="1531969557388" class="icon" style="" viewBox="0 0 1269 1024" version="1.1" xmlns="http://www.w3.org/2000/svg" p-id="31303" xmlns:xlink="http://www.w3.org/1999/xlink" width="52.048828125" height="42"><defs><style type="text/css"></style></defs><path d="M734.03040924 126.15596817a224.76990929 224.76990929 0 0 0-158.93438202-65.83434244 234.98047621 234.98047621 0 0 0-163.46859408 66.40778341 245.20407594 245.20407594 0 0 0-163.46503971-66.40778341 224.75569169 224.75569169 0 0 0-158.93438204 65.83434244 224.75213737 224.75213737 0 0 0-65.83434247 158.9331972 245.21473909 245.21473909 0 0 0 35.75712586 132.81319733c40.8659637 81.73666663 102.16964849 143.03679703 280.95764744 311.61067461l56.19484689 45.97598641 15.32414403 15.32414397 71.51780611-61.29894559a18584.18561883 18584.18561883 0 0 0 53.45678471-50.56706866c-12.71285489-14.50426558-23.80135524-28.12348896-33.70624502-41.33869709-17.05394533 15.83834521-35.49291647 32.78684374-55.51240475 51.03861725l-35.75594105 35.75594107-35.75712587-35.75594107c-178.79273811-158.35975621-234.98284581-219.65988662-270.74471086-291.1776927a234.993509 234.993509 0 0 1-30.64710324-112.38021553 173.68390025 173.68390025 0 0 1 50.86800671-122.81589352 173.68626982 173.68626982 0 0 1 122.81589355-50.8668219 188.98671791 188.98671791 0 0 1 143.03087306 66.40778344l20.43416665 25.53826533 20.43298185-25.53826533a188.99027231 188.99027231 0 0 1 143.03679703-66.40778344 173.67560668 173.67560668 0 0 1 122.81115439 50.8668219 173.60333412 173.60333412 0 0 1 22.68883235 27.99197663 250.40651264 250.40651264 0 0 1 69.33185852 28.7692025 224.75213737 224.75213737 0 0 0-55.89864804-92.87848281z" p-id="31304" fill="#121007"></path><path d="M1179.07392918 253.24423399a240.09286848 240.09286848 0 0 0-169.76815137-70.32471712 250.32950094 250.32950094 0 0 0-173.68390024 71.51780611 250.27618513 250.27618513 0 0 0-45.69282029-35.402872 250.3922951 250.3922951 0 0 0-69.33185852-28.7692025 250.30225066 250.30225066 0 0 0-58.65922142-7.34573161 240.09523809 240.09523809 0 0 0-240.09168368 240.09286846 280.9351363 280.9351363 0 0 0 35.75594104 143.03679704c12.96284671 24.48498222 27.14603274 47.34679469 45.29354424 71.55927398 9.90370493 13.21402336 20.9922053 26.83324672 33.70624502 41.33869709 46.61222154 53.17835775 115.10406015 118.27338788 227.50204749 219.14094623l56.19010778 51.08363947 15.32888314 15.32532882 71.51306694-66.40896829c199.22571996-178.78799891 260.52585036-245.19696716 306.50065199-332.0389173a280.9446147 280.9446147 0 0 0 35.75712584-143.03679704 240.08812932 240.08812932 0 0 0-70.31997796-169.76815134z m19.23752326 169.76578179c0.24880706 41.1834889-10.31956814 81.69164439-30.65065758 117.49497732-40.86359415 81.72718828-102.16372453 143.02968827-291.17532316 316.71951245l-40.86359413 35.75712584-40.87544207-35.75712584c-188.99856587-173.691009-250.29988106-234.99232417-291.1634752-316.71951245a234.93663879 234.93663879 0 0 1-30.66250555-117.49497732A183.9181631 183.9181631 0 0 1 661.94271652 233.99960195c59.15683547-0.09478364 115.31613852 26.11289116 153.24144001 71.52609966l20.43772104 25.54418936 20.43772106-25.54418936a199.23282876 199.23282876 0 0 1 153.24144-71.52609966c50.55522068-1.42175453 99.46357574 18.0325863 135.22070163 53.78971219a183.95370695 183.95370695 0 0 1 53.78971218 135.22070164z" p-id="31305" fill="#121007"></path></svg>