<?xml version="1.0" standalone="no"?><!DOCTYPE svg PUBLIC "-//W3C//DTD SVG 1.1//EN" "http://www.w3.org/Graphics/SVG/1.1/DTD/svg11.dtd"><svg t="1531969744963" class="icon" style="" viewBox="0 0 1024 1024" version="1.1" xmlns="http://www.w3.org/2000/svg" p-id="32201" xmlns:xlink="http://www.w3.org/1999/xlink" width="42" height="42"><defs><style type="text/css"></style></defs><path d="M845.496513 816.589137c-6.180769-18.359137-25.252127-24.316825-33.163307-26.024723l-2.989077-0.644683L231.264131 789.91973c-1.87572-0.298805-3.850701-0.456395-5.92392-0.456395-14.323217 0-32.504298 5.612834-40.573067 21.367657-5.983271 11.682064-4.607948 25.524327 3.675716 37.028335 62.070684 86.208431 183.858448 137.677663 325.781808 137.677663 130.197294 0 251.426333-50.751894 324.280618-135.763057C846.671269 840.244906 849.28684 827.839365 845.496513 816.589137zM514.224668 928.257425c-101.43625 0-192.662975-30.300097-249.51889-81.059154l494.67031 0C696.569646 898.573359 608.388281 928.257425 514.224668 928.257425zM346.022805 756.420779l362.995361 0 4.706185-1.695618c15.22475-5.484921 33.005718-19.579941 33.012881-41.249473l0.066515-173.34193c0.069585-186.943716 0.170892-447.569572 0.170892-456.729186 0-27.910677-22.13309-42.971697-42.959418-42.971697l-3.502777 0-3.3984 0.844228c-114.753557 28.498054-218.890312 110.769826-293.226345 231.658104-74.251098 120.753201-115.143437 275.094382-115.143437 434.594049C288.744263 731.745796 317.65164 756.420779 346.022805 756.420779zM689.688935 102.884228c-0.021489 65.085344-0.104377 277.915637-0.164752 437.228039l-0.059352 159.028946L346.545714 699.141214c-0.145309-0.049119-0.308015-0.115634-0.480954-0.195451C348.851223 411.497005 491.272933 166.160367 689.688935 102.884228z" p-id="32202" fill="#121007"></path></svg>