<?xml version="1.0" standalone="no"?><!DOCTYPE svg PUBLIC "-//W3C//DTD SVG 1.1//EN" "http://www.w3.org/Graphics/SVG/1.1/DTD/svg11.dtd"><svg t="1531969737882" class="icon" style="" viewBox="0 0 1024 1024" version="1.1" xmlns="http://www.w3.org/2000/svg" p-id="32047" xmlns:xlink="http://www.w3.org/1999/xlink" width="42" height="42"><defs><style type="text/css"></style></defs><path d="M555.98592 698.94656a1.3824 1.3824 0 0 0 0.18944 0.19456h133.43232l0.0256-159.0272 0.06656-437.22752c-77.21472 63.27296-132.62848 308.608-133.71392 596.06016z" fill="#d81e06" p-id="32048"></path><path d="M704.01536 40.43264h-3.50208l-3.39968 0.8448c-114.75456 28.49792-218.89024 110.7712-293.22752 231.65952-74.25024 120.7552-115.14368 275.09248-115.14368 434.59584 0 24.2176 28.90752 48.89088 57.27744 48.89088h362.99776l4.70528-1.69472c15.22688-5.48352 33.00352-19.57888 33.01376-41.25184l0.06656-173.34272 0.16896-456.7296c0-27.90912-22.12864-42.97216-42.9568-42.97216z m-14.4896 499.68128l-0.06144 159.0272H346.5472a7.33184 7.33184 0 0 1-0.48128-0.19456c2.78528-287.44704 145.20832-532.7872 343.62368-596.06016l-0.16384 437.22752zM845.49632 816.5888c-6.17984-18.36032-25.25184-24.31488-33.16224-26.02496l-2.99008-0.64512H231.26528a37.82656 37.82656 0 0 0-5.92384-0.45568c-14.32576 0-32.50688 5.61152-40.57088 21.36576-5.98528 11.68384-4.608 25.5232 3.67616 37.02784 62.06976 86.21056 183.8592 137.6768 325.78048 137.6768 130.19648 0 251.42784-50.74944 324.28032-135.76192 8.16128-9.52832 10.7776-21.93408 6.9888-33.18272z" fill="#d81e06" p-id="32049"></path><path d="M514.18112 928.03072c94.16192 0 182.34368-29.68576 245.15072-81.05984H264.66304c56.8576 50.75968 148.08576 81.05984 249.51808 81.05984z" fill="#d81e06" p-id="32050"></path></svg>