<?xml version="1.0" standalone="no"?><!DOCTYPE svg PUBLIC "-//W3C//DTD SVG 1.1//EN" "http://www.w3.org/Graphics/SVG/1.1/DTD/svg11.dtd"><svg t="1531967255203" class="icon" style="" viewBox="0 0 1024 1024" version="1.1" xmlns="http://www.w3.org/2000/svg" p-id="6972" xmlns:xlink="http://www.w3.org/1999/xlink" width="42" height="42"><defs><style type="text/css"></style></defs><path d="M882.531 440.012L582.3 127.808c-18.624-19.34-43.592-30.084-70.3-30.084s-51.676 10.642-70.3 30.084L141.571 440.012c-31.005 32.233-27.014 60.067-21.898 71.732 3.684 8.289 15.963 30.903 51.471 30.903h44.001v240.165c0 54.541 39.192 105.91 94.859 105.91h127.808V634.538c0-27.22-4.093-42.466 23.74-42.466H562.55c27.834 0 23.74 15.145 23.74 42.466v254.184h127.706c55.667 0 94.859-51.369 94.859-105.91V542.647h44c35.509 0 47.788-22.717 51.472-30.903 5.116-11.665 9.107-39.499-21.796-71.732z m-29.675 53.21H759.328v289.59c0 27.22-17.6 56.383-45.434 56.383h-78.281V634.538c0-54.54-17.498-91.89-73.165-91.89H461.45c-55.667 0-73.165 37.35-73.165 91.89v204.76h-78.281c-27.834 0-45.434-29.164-45.434-56.384V493.325H171.042c-0.921 0-1.637-3.377-2.354-3.48 1.74-2.967 4.707-10.539 9.62-15.655l300.23-312c8.903-9.414 21.592-15.042 33.871-14.94 12.28-0.102 24.15 5.629 33.155 14.94l300.129 311.897c4.912 5.117 7.88 12.69 9.516 15.657-0.614 0.102-1.432 3.479-2.353 3.479z" p-id="6973" fill="#121007"></path></svg>