<?xml version="1.0" standalone="no"?><!DOCTYPE svg PUBLIC "-//W3C//DTD SVG 1.1//EN" "http://www.w3.org/Graphics/SVG/1.1/DTD/svg11.dtd"><svg t="1531967314492" class="icon" style="" viewBox="0 0 1024 1024" version="1.1" xmlns="http://www.w3.org/2000/svg" p-id="7165" xmlns:xlink="http://www.w3.org/1999/xlink" width="42" height="42"><defs><style type="text/css"></style></defs><path d="M938.550351 420.09687 544.85478 89.101317c-0.069585-0.058328-0.14224-0.11154-0.212848-0.170892-0.406253-0.339738-0.820692-0.666172-1.236154-0.99056-0.161682-0.12689-0.322341-0.254803-0.487094-0.378623-0.499373-0.379647-1.004887-0.74599-1.515516-1.105171-0.080841-0.057305-0.161682-0.11461-0.242524-0.170892-0.582261-0.404206-1.172709-0.793062-1.768273-1.170662-0.007163-0.00307-0.013303-0.007163-0.019443-0.011256-18.34788-11.58178-42.872436-10.219759-59.740616 4.069689L86.023724 420.09687c-20.579711 17.286712-22.661116 47.351448-4.685719 67.127863 17.975397 19.763113 49.254797 21.806655 69.822229 4.507664l33.921577-28.519544 0 279.198863c0 65.736167 55.638181 119.242801 124.005268 119.242801l73.90829 0c27.321252 0 49.471738-21.297049 49.471738-47.570435L432.467107 589.488839c0-13.265118 11.234879-24.078395 25.022906-24.078395l109.539812 0c13.814634 0 25.075095 10.813277 25.075095 24.078395l0 219.015156c0 3.255137 0.344854 6.499018 1.046842 9.702989l1.199315 5.579065c4.787026 22.049179 25.009603 37.867446 48.438199 37.867446l72.694649 0c68.38039 0 124.017548-53.506635 124.017548-119.242801l0-279.18863 33.909297 28.509311c9.383718 7.876388 21.00029 11.745509 32.555463 11.745509 13.762445 0 27.488051-5.502317 37.266765-16.253172C961.20942 467.448318 959.129039 437.382559 938.550351 420.09687z" p-id="7166" fill="#d81e06"></path></svg>