<?xml version="1.0" standalone="no"?><!DOCTYPE svg PUBLIC "-//W3C//DTD SVG 1.1//EN" "http://www.w3.org/Graphics/SVG/1.1/DTD/svg11.dtd"><svg t="1531967538026" class="icon" style="" viewBox="0 0 1024 1024" version="1.1" xmlns="http://www.w3.org/2000/svg" p-id="9360" xmlns:xlink="http://www.w3.org/1999/xlink" width="42" height="42"><defs><style type="text/css"></style></defs><path d="M886.702 107.892h-238.449c-55.654 0-105.151 26.829-136.253 68.23-31.106-41.402-80.607-68.23-136.261-68.23h-238.443c-37.558 0-68.13 30.554-68.13 68.13v630.182c0 37.558 30.539 68.13 68.13 68.13h250.423c33.426 32.669 77.908 51.098 124.279 51.098 46.37 0 90.845-18.429 124.278-51.098h250.423c37.558 0 68.13-30.535 68.13-68.13v-630.182c0.001-37.558-30.534-68.13-68.129-68.13v0zM907.86 792.042c0 18.005-14.594 32.601-32.601 32.601h-247.532c-10.506 0-20.49 4.603-27.338 12.667-22.531 26.469-54.757 41.682-88.389 41.682-33.634 0-65.861-15.213-88.386-41.682-6.855-8.063-16.832-12.667-27.344-12.667h-247.53c-18.005 0-32.601-14.594-32.601-32.601v-605.108c0-18.006 14.594-32.601 32.601-32.601h219.31c59.534 0 120.074 48.758 120.074 108.697v613.324c0 0 11.939 2.525 23.877 2.525s23.877-2.525 23.877-2.525v-613.324c0-59.941 60.539-108.697 120.074-108.697h219.31c18.005 0 32.601 14.593 32.601 32.601v605.108h-0.001zM907.86 792.042z" p-id="9361" fill="#121007"></path></svg>