<?xml version="1.0" standalone="no"?><!DOCTYPE svg PUBLIC "-//W3C//DTD SVG 1.1//EN" "http://www.w3.org/Graphics/SVG/1.1/DTD/svg11.dtd"><svg t="1531967870990" class="icon" style="" viewBox="0 0 1024 1024" version="1.1" xmlns="http://www.w3.org/2000/svg" p-id="21083" xmlns:xlink="http://www.w3.org/1999/xlink" width="42" height="42"><defs><style type="text/css"></style></defs><path d="M709.973333 856.746667c-75.093333 0-116.053333-37.546667-119.466667-109.226667 0-54.613333 23.893333-85.333333 47.786667-109.226667 20.48-23.893333 37.546667-40.96 37.546667-75.093333 0-47.786667-23.893333-68.266667-54.613333-92.16-27.306667-23.893333-61.44-51.2-61.44-105.813333 0-54.613333 37.546667-88.746667 102.4-88.746667 30.72 0 75.093333 6.826667 112.64 20.48-10.24-10.24-17.066667-23.893333-20.48-44.373333 0-34.133333 17.066667-58.026667 40.96-58.026667 27.306667 0 44.373333 23.893333 44.373333 54.613333 0 34.133333-20.48 58.026667-44.373333 54.613333 17.066667 6.826667 30.72 17.066667 44.373333 27.306667-3.413333-6.826667-3.413333-17.066667 0-27.306667l0 0c3.413333-23.893333 23.893333-40.96 44.373333-40.96l3.413333 0c10.24 3.413333 17.066667 10.24 23.893333 17.066667C921.6 293.546667 921.6 307.2 918.186667 317.44c-3.413333 20.48-23.893333 40.96-44.373333 40.96l-3.413333 0c0 0 0 0 0 0 17.066667 23.893333 27.306667 51.2 30.72 85.333333 0 68.266667-20.48 112.64-44.373333 157.013333-20.48 40.96-40.96 81.92-40.96 139.946667C815.786667 798.72 774.826667 856.746667 709.973333 856.746667zM665.6 307.2c-68.266667 0-68.266667 40.96-68.266667 54.613333 0 37.546667 20.48 54.613333 47.786667 78.506667 30.72 27.306667 64.853333 54.613333 64.853333 119.466667 0 47.786667-23.893333 75.093333-47.786667 98.986667-20.48 23.893333-40.96 47.786667-40.96 85.333333 3.413333 40.96 13.653333 78.506667 85.333333 78.506667 44.373333 0 71.68-44.373333 71.68-81.92 0-68.266667 23.893333-112.64 44.373333-157.013333 20.48-40.96 40.96-78.506667 37.546667-139.946667C860.16 310.613333 672.426667 307.2 665.6 307.2zM877.226667 310.613333c0 6.826667 0 10.24 0 13.653333 3.413333-3.413333 6.826667-6.826667 6.826667-13.653333C887.466667 303.786667 887.466667 300.373333 887.466667 296.96 887.466667 296.96 880.64 300.373333 877.226667 310.613333zM798.72 225.28c0 0-6.826667 6.826667-6.826667 20.48 3.413333 13.653333 10.24 20.48 10.24 20.48 0 0 6.826667-6.826667 6.826667-20.48C808.96 235.52 805.546667 225.28 798.72 225.28zM604.16 276.48c-34.133333 0-61.44-30.72-68.266667-71.68-3.413333-30.72 0-58.026667 13.653333-75.093333 10.24-10.24 20.48-17.066667 34.133333-20.48 10.24-3.413333 23.893333 0 37.546667 10.24 17.066667 13.653333 30.72 37.546667 37.546667 64.853333 0 3.413333 0 6.826667 0 10.24 3.413333-23.893333 20.48-44.373333 44.373333-47.786667 0 0 0 0 0 0 27.306667 0 51.2 27.306667 54.613333 58.026667 3.413333 34.133333-13.653333 64.853333-40.96 68.266667l0 0c-10.24 3.413333-23.893333 0-34.133333-10.24-13.653333-10.24-20.48-27.306667-23.893333-44.373333-3.413333 13.653333-6.826667 27.306667-13.653333 37.546667-10.24 10.24-20.48 17.066667-34.133333 20.48C607.573333 276.48 604.16 276.48 604.16 276.48zM590.506667 139.946667C590.506667 139.946667 590.506667 139.946667 590.506667 139.946667c-6.826667 0-10.24 3.413333-13.653333 6.826667-6.826667 10.24-10.24 30.72-6.826667 47.786667 3.413333 27.306667 23.893333 44.373333 37.546667 44.373333l0 0C610.986667 238.933333 610.986667 238.933333 614.4 235.52c6.826667-10.24 10.24-30.72 6.826667-47.786667-3.413333-17.066667-10.24-34.133333-20.48-40.96C597.333333 143.36 593.92 139.946667 590.506667 139.946667zM706.56 177.493333c-6.826667 0-17.066667 13.653333-13.653333 34.133333 0 10.24 6.826667 20.48 10.24 23.893333C706.56 238.933333 709.973333 238.933333 709.973333 238.933333c6.826667 0 17.066667-13.653333 13.653333-30.72C723.626667 191.146667 709.973333 177.493333 706.56 177.493333z" p-id="21084" fill="#121007"></path><path d="M334.506667 856.746667c-64.853333 0-105.813333-61.44-105.813333-116.053333 0-61.44-20.48-98.986667-40.96-139.946667-23.893333-44.373333-44.373333-88.746667-40.96-157.013333 0-61.44 34.133333-102.4 78.506667-129.706667-3.413333 0-6.826667 3.413333-10.24 3.413333C191.146667 314.026667 170.666667 290.133333 170.666667 259.413333s20.48-54.613333 44.373333-54.613333c23.893333 0 40.96 23.893333 40.96 54.613333 0 20.48-6.826667 37.546667-20.48 47.786667 40.96-20.48 92.16-34.133333 143.36-34.133333 0 0 0 0 0 0 64.853333 0 102.4 34.133333 102.4 88.746667 0 54.613333-34.133333 81.92-61.44 105.813333-27.306667 23.893333-51.2 44.373333-51.2 88.746667 0 30.72 17.066667 51.2 37.546667 71.68 23.893333 27.306667 51.2 58.026667 47.786667 112.64C450.56 819.2 409.6 856.746667 334.506667 856.746667zM378.88 303.786667c-44.373333 3.413333-197.973333 17.066667-197.973333 136.533333l0 0c-3.413333 61.44 17.066667 98.986667 37.546667 139.946667 20.48 44.373333 44.373333 88.746667 44.373333 157.013333 0 40.96 27.306667 81.92 71.68 81.92 71.68 0 81.92-37.546667 85.333333-78.506667 0-40.96-17.066667-64.853333-40.96-88.746667-20.48-23.893333-44.373333-51.2-44.373333-95.573333 0-61.44 34.133333-88.746667 64.853333-116.053333 27.306667-23.893333 47.786667-40.96 47.786667-81.92C447.146667 348.16 447.146667 303.786667 378.88 303.786667zM215.04 235.52C211.626667 235.52 204.8 242.346667 204.8 259.413333s6.826667 20.48 10.24 20.48c0 0 6.826667-6.826667 6.826667-20.48S215.04 235.52 215.04 235.52zM143.36 368.64c-6.826667 0-13.653333-3.413333-20.48-6.826667C112.64 354.986667 105.813333 341.333333 102.4 324.266667 98.986667 300.373333 109.226667 276.48 129.706667 273.066667c10.24-3.413333 20.48 0 27.306667 6.826667 10.24 6.826667 20.48 20.48 20.48 37.546667C184.32 341.333333 170.666667 361.813333 153.6 365.226667l0 0C150.186667 368.64 146.773333 368.64 143.36 368.64zM136.533333 303.786667C136.533333 307.2 136.533333 310.613333 136.533333 320.853333c0 6.826667 3.413333 13.653333 6.826667 13.653333 0-3.413333 3.413333-6.826667 0-13.653333C143.36 310.613333 139.946667 307.2 136.533333 303.786667zM443.733333 273.066667c-3.413333 0-6.826667 0-10.24 0-34.133333-6.826667-54.613333-47.786667-47.786667-95.573333 6.826667-44.373333 37.546667-75.093333 75.093333-71.68 34.133333 6.826667 54.613333 47.786667 47.786667 95.573333-3.413333 27.306667-17.066667 51.2-34.133333 64.853333C464.213333 269.653333 453.973333 273.066667 443.733333 273.066667zM453.973333 139.946667c-13.653333 0-30.72 17.066667-34.133333 44.373333-3.413333 27.306667 3.413333 51.2 20.48 54.613333 3.413333 0 10.24 0 13.653333-3.413333 10.24-6.826667 17.066667-23.893333 20.48-40.96l0 0C477.866667 167.253333 467.626667 143.36 453.973333 139.946667 453.973333 139.946667 453.973333 139.946667 453.973333 139.946667zM314.026667 269.653333c-3.413333 0-3.413333 0-6.826667 0-27.306667-3.413333-44.373333-34.133333-40.96-68.266667 3.413333-20.48 10.24-37.546667 23.893333-47.786667 10.24-6.826667 20.48-10.24 34.133333-10.24 6.826667 0 17.066667 3.413333 27.306667 13.653333 10.24 13.653333 17.066667 34.133333 17.066667 54.613333l0 0c-3.413333 20.48-10.24 37.546667-23.893333 47.786667C331.093333 266.24 320.853333 269.653333 314.026667 269.653333zM317.44 177.493333c-3.413333 0-3.413333 0-6.826667 3.413333C303.786667 187.733333 300.373333 194.56 296.96 204.8 296.96 221.866667 307.2 235.52 310.613333 235.52c0 0 3.413333 0 6.826667-3.413333 6.826667-3.413333 10.24-13.653333 10.24-23.893333 0-13.653333-3.413333-23.893333-6.826667-27.306667C320.853333 180.906667 320.853333 180.906667 317.44 177.493333 317.44 180.906667 317.44 177.493333 317.44 177.493333z" p-id="21085" fill="#121007"></path></svg>