<?xml version="1.0" standalone="no"?><!DOCTYPE svg PUBLIC "-//W3C//DTD SVG 1.1//EN" "http://www.w3.org/Graphics/SVG/1.1/DTD/svg11.dtd"><svg t="1531967895372" class="icon" style="" viewBox="0 0 1024 1024" version="1.1" xmlns="http://www.w3.org/2000/svg" p-id="22964" xmlns:xlink="http://www.w3.org/1999/xlink" width="42" height="42"><defs><style type="text/css"></style></defs><path d="M819.2 235.52c17.066667 0 30.72-20.48 30.72-47.786667s-13.653333-47.786667-34.133333-47.786667c-17.066667 0-30.72 20.48-30.72 47.786667C788.48 215.04 802.133333 235.52 819.2 235.52z" fill="#d81e06" p-id="22965"></path><path d="M873.813333 262.826667c13.653333 0 30.72-13.653333 34.133333-34.133333 6.826667-20.48-3.413333-37.546667-17.066667-40.96-13.653333 0-30.72 13.653333-34.133333 34.133333C853.333333 242.346667 860.16 259.413333 873.813333 262.826667z" fill="#d81e06" p-id="22966"></path><path d="M733.866667 221.866667c20.48-3.413333 37.546667-30.72 34.133333-61.44-3.413333-30.72-23.893333-54.613333-44.373333-54.613333C699.733333 109.226667 682.666667 136.533333 686.08 170.666667 689.493333 201.386667 709.973333 225.28 733.866667 221.866667z" fill="#d81e06" p-id="22967"></path><path d="M925.013333 303.786667c10.24 0 20.48-13.653333 20.48-30.72s-10.24-30.72-20.48-30.72c-10.24 0-20.48 13.653333-20.48 30.72S914.773333 303.786667 925.013333 303.786667z" fill="#d81e06" p-id="22968"></path><path d="M689.493333 276.48c-37.546667 0-105.813333 10.24-105.813333 88.746667 0 116.053333 139.946667 112.64 139.946667 242.346667 0 102.4-109.226667 116.053333-105.813333 228.693333 3.413333 61.44 27.306667 116.053333 126.293333 116.053333 68.266667 0 109.226667-64.853333 109.226667-122.88 0-160.426667 105.813333-208.213333 102.4-365.226667C948.906667 303.786667 757.76 276.48 689.493333 276.48z" fill="#d81e06" p-id="22969"></path><path d="M658.773333 143.36c-6.826667-44.373333-37.546667-78.506667-68.266667-71.68-30.72 3.413333-47.786667 44.373333-40.96 92.16 6.826667 44.373333 37.546667 75.093333 68.266667 71.68C648.533333 232.106667 665.6 191.146667 658.773333 143.36z" fill="#d81e06" p-id="22970"></path><path d="M290.133333 221.866667C314.026667 225.28 334.506667 201.386667 337.92 170.666667c3.413333-34.133333-13.653333-61.44-34.133333-61.44C279.893333 105.813333 259.413333 129.706667 256 160.426667 252.586667 191.146667 269.653333 218.453333 290.133333 221.866667z" fill="#d81e06" p-id="22971"></path><path d="M98.986667 303.786667c10.24 0 20.48-13.653333 20.48-30.72S109.226667 242.346667 98.986667 242.346667C88.746667 242.346667 78.506667 256 78.506667 273.066667S88.746667 303.786667 98.986667 303.786667z" fill="#d81e06" p-id="22972"></path><path d="M204.8 235.52c17.066667 0 30.72-20.48 30.72-47.786667S221.866667 139.946667 204.8 139.946667 170.666667 160.426667 170.666667 187.733333 187.733333 235.52 204.8 235.52z" fill="#d81e06" p-id="22973"></path><path d="M443.733333 361.813333C443.733333 283.306667 375.466667 273.066667 337.92 273.066667c-71.68 3.413333-262.826667 30.72-266.24 187.733333-6.826667 157.013333 102.4 204.8 102.4 365.226667 0 58.026667 40.96 122.88 109.226667 122.88 98.986667 0 122.88-54.613333 126.293333-116.053333 3.413333-116.053333-105.813333-129.706667-105.813333-228.693333C303.786667 477.866667 443.733333 477.866667 443.733333 361.813333z" fill="#d81e06" p-id="22974"></path><path d="M433.493333 68.266667c-30.72-3.413333-61.44 27.306667-68.266667 71.68-6.826667 44.373333 10.24 85.333333 40.96 92.16 30.72 6.826667 61.44-23.893333 68.266667-71.68C481.28 116.053333 464.213333 75.093333 433.493333 68.266667z" fill="#d81e06" p-id="22975"></path><path d="M150.186667 262.826667C163.84 259.413333 170.666667 242.346667 167.253333 221.866667c-3.413333-23.893333-20.48-37.546667-34.133333-34.133333C119.466667 191.146667 112.64 208.213333 116.053333 228.693333 119.466667 252.586667 136.533333 266.24 150.186667 262.826667z" fill="#d81e06" p-id="22976"></path></svg>