<?xml version="1.0" standalone="no"?><!DOCTYPE svg PUBLIC "-//W3C//DTD SVG 1.1//EN" "http://www.w3.org/Graphics/SVG/1.1/DTD/svg11.dtd"><svg t="1531979499786" class="icon" style="" viewBox="0 0 1024 1024" version="1.1" xmlns="http://www.w3.org/2000/svg" p-id="32917" xmlns:xlink="http://www.w3.org/1999/xlink" width="30" height="30"><defs><style type="text/css"></style></defs><path d="M894.3872 819.013632 655.1552 576.60928c52.4288-55.12704 72.761344-122.871808 72.761344-205.053952 0-169.146368-130.610176-305.958912-298.596352-305.958912-167.962624 0-304.633856 137.617408-304.633856 306.763776 0 169.147392 134.541312 299.305984 302.50496 299.305984 70.132736 0 136.737792-16.780288 188.269568-57.020416l240.959488 244.130816c4.405248 4.451328 10.180608 6.677504 15.954944 6.677504 5.776384 0 15.337472-6.816768 19.739648-11.266048C900.921344 845.33248 903.1936 827.913216 894.3872 819.013632zM172.831744 368.572416c0-140.362752 113.378304-254.498816 252.724224-254.498816 139.368448 0 252.7488 114.136064 252.7488 254.498816 0 140.316672-113.381376 254.49984-252.7488 254.49984C286.210048 623.072256 172.831744 508.889088 172.831744 368.572416z" p-id="32918"></path></svg>