<?xml version="1.0" standalone="no"?><!DOCTYPE svg PUBLIC "-//W3C//DTD SVG 1.1//EN" "http://www.w3.org/Graphics/SVG/1.1/DTD/svg11.dtd"><svg t="1531968287913" class="icon" style="" viewBox="0 0 1024 1024" version="1.1" xmlns="http://www.w3.org/2000/svg" p-id="30821" xmlns:xlink="http://www.w3.org/1999/xlink" width="42" height="42"><defs><style type="text/css"></style></defs><path d="M744.6528 325.8368c0-128.6144-104.2432-232.6528-232.6528-232.6528-128.6144 0-232.6528 104.2432-232.6528 232.6528 0 128.6144 104.2432 232.6528 232.6528 232.6528 128.6144 0 232.6528-104.2432 232.6528-232.6528zM512 512c-102.8096 0-186.1632-83.3536-186.1632-186.1632s83.3536-186.1632 186.1632-186.1632 186.1632 83.3536 186.1632 186.1632S614.8096 512 512 512z m0 46.4896c-163.4304 0-304.5376 93.7984-373.5552 230.1952 10.24 13.7216 21.0944 26.8288 32.768 39.3216 57.5488-131.2768 188.416-222.8224 340.992-222.8224 152.3712 0 283.2384 91.7504 340.992 222.8224 11.4688-12.4928 22.528-25.6 32.768-39.3216-69.4272-136.3968-210.5344-230.1952-373.9648-230.1952zM512 0C229.1712 0 0 229.1712 0 512s229.1712 512 512 512 512-229.1712 512-512S794.8288 0 512 0z m0 977.5104C254.976 977.5104 46.4896 769.024 46.4896 512 46.4896 254.976 254.976 46.4896 512 46.4896c257.024 0 465.5104 208.4864 465.5104 465.5104 0 257.024-208.4864 465.5104-465.5104 465.5104z" fill="#121007" p-id="30822"></path></svg>